<svg width="41" height="31" viewBox="0 0 41 31" fill="none" xmlns="http://www.w3.org/2000/svg">
<path fill-rule="evenodd" clip-rule="evenodd" d="M13.7687 20.6667C15.9654 20.6667 17.7463 18.7617 17.7463 16.4118C17.7463 14.0618 15.9654 12.1569 13.7687 12.1569C11.5719 12.1569 9.79105 14.0618 9.79105 16.4118C9.79105 18.7617 11.5719 20.6667 13.7687 20.6667ZM13.7687 18.6C14.6738 18.6 15.6657 17.7672 15.6657 16.4118C15.6657 15.0563 14.6738 14.2235 13.7687 14.2235C12.8635 14.2235 11.8716 15.0563 11.8716 16.4118C11.8716 17.7672 12.8635 18.6 13.7687 18.6Z" fill="url(#paint0_linear_202_83)"/>
<path fill-rule="evenodd" clip-rule="evenodd" d="M31.8209 16.4118C31.8209 18.7617 29.9031 20.6667 27.5373 20.6667C25.1716 20.6667 23.2537 18.7617 23.2537 16.4118C23.2537 14.0618 25.1716 12.1569 27.5373 12.1569C29.9031 12.1569 31.8209 14.0618 31.8209 16.4118ZM29.7403 16.4118C29.7403 17.6203 28.754 18.6 27.5373 18.6C26.3206 18.6 25.3343 17.6203 25.3343 16.4118C25.3343 15.2032 26.3206 14.2235 27.5373 14.2235C28.754 14.2235 29.7403 15.2032 29.7403 16.4118Z" fill="url(#paint1_linear_202_83)"/>
<path fill-rule="evenodd" clip-rule="evenodd" d="M28.3745 27.7953L31.5871 26.0148L30.8732 25.3027C29.7642 25.7666 28.6731 26.1376 27.6072 26.4291C26.9966 26.5961 26.3944 26.7371 25.8017 26.8545C21.4231 27.7225 17.5677 27.309 14.7801 26.6461C14.3476 26.5433 13.9407 26.4344 13.5616 26.3234C11.5307 25.7286 10.2959 25.0721 10.1701 24.9466L9.09924 25.6588L12.6687 27.7953L10.527 31C6.24365 30.1454 1.84128 27.3205 0.175524 26.0148C-0.966714 14.0505 3.74502 5.36205 6.24366 2.51339C9.09925 0.234458 13.1447 -0.0978861 14.8104 0.0208081L15.8813 2.1573C18.4513 1.30271 23.3772 1.80122 25.5189 2.1573L26.2328 0.0208081C30.8018 0.0208081 33.8477 1.68253 34.7996 2.51339C40.7963 7.92584 41.3437 20.4362 40.8677 26.0148C38.2977 28.8635 32.8959 30.5252 30.5162 31L28.3745 27.7953ZM11.482 23.3263L10.4359 22.2827L5.2214 25.7506L9.73318 28.4511L9.60621 28.6411C6.68961 27.7737 3.8018 26.0635 2.17164 24.9153C1.4151 14.2258 5.56291 6.54673 7.69093 4.01258C8.77091 3.19675 10.1095 2.68001 11.4309 2.38404C12.2028 2.21114 12.9254 2.12329 13.522 2.08721L14.8254 4.6878L16.5418 4.11707C17.4492 3.81534 19.0023 3.70758 20.7891 3.76874C22.5074 3.82756 24.1829 4.0306 25.1754 4.19561L26.9324 4.48773L27.7121 2.15433C30.927 2.44902 32.9243 3.63602 33.4153 4.0564C35.889 6.29926 37.4134 10.2142 38.2141 14.5728C38.9335 18.4888 39.0105 22.439 38.8481 25.1036C37.8489 26.0058 36.4039 26.8217 34.8071 27.4955C33.6098 28.0007 32.4212 28.387 31.4451 28.6531L31.351 28.5123L34.9996 26.4901L31.358 22.8574L30.0656 23.398C24.9696 25.5299 20.2957 25.5287 16.8494 24.9558C15.1241 24.6689 13.7167 24.24 12.7371 23.871C12.2469 23.6864 11.8732 23.5203 11.6285 23.4004C11.5695 23.3715 11.5208 23.3467 11.482 23.3263ZM11.3826 23.2717C11.3574 23.257 11.3479 23.2501 11.3479 23.2501C11.3479 23.2501 11.3615 23.2576 11.3826 23.2717Z" fill="url(#paint2_linear_202_83)"/>
<defs>
<linearGradient id="paint0_linear_202_83" x1="30.7484" y1="0" x2="30.7484" y2="31" gradientUnits="userSpaceOnUse">
<stop stop-color="#FF7044"/>
<stop offset="1" stop-color="#FFC645"/>
</linearGradient>
<linearGradient id="paint1_linear_202_83" x1="30.7484" y1="0" x2="30.7484" y2="31" gradientUnits="userSpaceOnUse">
<stop stop-color="#FF7044"/>
<stop offset="1" stop-color="#FFC645"/>
</linearGradient>
<linearGradient id="paint2_linear_202_83" x1="30.7484" y1="0" x2="30.7484" y2="31" gradientUnits="userSpaceOnUse">
<stop stop-color="#FF7044"/>
<stop offset="1" stop-color="#FFC645"/>
</linearGradient>
</defs>
</svg>
