<svg width="41" height="30" viewBox="0 0 41 30" fill="none" xmlns="http://www.w3.org/2000/svg">
<path fill-rule="evenodd" clip-rule="evenodd" d="M13.7687 19.911C15.9654 19.911 17.7463 18.0867 17.7463 15.8364C17.7463 13.586 15.9654 11.7618 13.7687 11.7618C11.5719 11.7618 9.79105 13.586 9.79105 15.8364C9.79105 18.0867 11.5719 19.911 13.7687 19.911ZM13.7687 17.9319C14.6738 17.9319 15.6657 17.1344 15.6657 15.8364C15.6657 14.5384 14.6738 13.7409 13.7687 13.7409C12.8635 13.7409 11.8716 14.5384 11.8716 15.8364C11.8716 17.1344 12.8635 17.9319 13.7687 17.9319Z" fill="#55545C"/>
<path fill-rule="evenodd" clip-rule="evenodd" d="M31.8209 15.8364C31.8209 18.0867 29.9031 19.911 27.5373 19.911C25.1716 19.911 23.2537 18.0867 23.2537 15.8364C23.2537 13.586 25.1716 11.7618 27.5373 11.7618C29.9031 11.7618 31.8209 13.586 31.8209 15.8364ZM29.7403 15.8364C29.7403 16.9937 28.754 17.9319 27.5373 17.9319C26.3206 17.9319 25.3343 16.9937 25.3343 15.8364C25.3343 14.6791 26.3206 13.7409 27.5373 13.7409C28.754 13.7409 29.7403 14.6791 29.7403 15.8364Z" fill="#55545C"/>
<path fill-rule="evenodd" clip-rule="evenodd" d="M28.3745 26.7375L31.5871 25.0325L30.8732 24.3505C29.7642 24.7948 28.6731 25.15 27.6072 25.4292C26.9966 25.5891 26.3944 25.7241 25.8017 25.8366C21.4231 26.6678 17.5677 26.2719 14.7801 25.6371C14.3476 25.5385 13.9407 25.4343 13.5616 25.328C11.5307 24.7584 10.2959 24.1297 10.1701 24.0095L9.09924 24.6915L12.6687 26.7375L10.527 29.8064C6.24365 28.988 1.84128 26.2828 0.175524 25.0325C-0.966714 13.5752 3.74502 5.25493 6.24366 2.52699C9.09925 0.344639 13.1447 0.0263793 14.8104 0.140044L15.8813 2.186C18.4513 1.36762 23.3772 1.84501 25.5189 2.186L26.2328 0.140044C30.8018 0.140044 33.8477 1.73134 34.7996 2.52699C40.7963 7.71008 41.3437 19.6903 40.8677 25.0325C38.2977 27.7604 32.8959 29.3517 30.5162 29.8064L28.3745 26.7375ZM11.482 22.4579L10.4359 21.4586L5.2214 24.7794L9.73318 27.3655L9.60621 27.5474C6.68961 26.7168 3.8018 25.0791 2.17164 23.9796C1.4151 13.7431 5.56291 6.38941 7.69093 3.96265C8.77091 3.1814 10.1095 2.68656 11.4309 2.40312C12.2028 2.23755 12.9254 2.15343 13.522 2.11888L14.8254 4.60926L16.5418 4.06272C17.4492 3.77377 19.0023 3.67057 20.7891 3.72914C22.5074 3.78547 24.1829 3.97991 25.1754 4.13793L26.9324 4.41767L27.7121 2.18315C30.927 2.46535 32.9243 3.60205 33.4153 4.00462C35.889 6.15243 37.4134 9.90148 38.2141 14.0753C38.9335 17.8254 39.0105 21.6082 38.8481 24.1599C37.8489 25.0238 36.4039 25.8052 34.8071 26.4504C33.6098 26.9342 32.4212 27.3042 31.4451 27.559L31.351 27.4241L34.9996 25.4877L31.358 22.0088L30.0656 22.5266C24.9696 24.5681 20.2957 24.567 16.8494 24.0183C15.1241 23.7436 13.7167 23.3328 12.7371 22.9795C12.2469 22.8027 11.8732 22.6437 11.6285 22.5289C11.5695 22.5012 11.5208 22.4775 11.482 22.4579ZM11.3826 22.4056C11.3574 22.3915 11.3479 22.3849 11.3479 22.3849C11.3479 22.3849 11.3615 22.3921 11.3826 22.4056Z" fill="#55545C"/>
</svg>
