<svg width="55" height="61" viewBox="0 0 55 61" fill="none" xmlns="http://www.w3.org/2000/svg">
<path fill-rule="evenodd" clip-rule="evenodd" d="M30.1846 15.0006V0L51.4249 12.5337C54.0368 13.4044 54.7019 16.3066 54.708 17.6488C54.7261 24.5898 54.7805 39.2482 54.8531 42.3535C54.9256 45.4589 53.0815 47.263 52.1504 47.777L27.4276 61L2.70472 47.777C1.77361 47.2631 -0.0704747 45.4589 0.0020795 42.3536C0.0746337 39.2483 0.129051 24.5899 0.14719 17.6489C0.153235 16.3066 0.818313 13.4044 3.43027 12.5338L24.6705 4.29027e-05V15.0006L19.6461 17.8484L15.9459 16.1252L21.2061 13.0054V5.98577L5.60689 15.0006L24.6705 26.1921V30.1282L3.43027 17.8484V35.8237L12.2819 41.3741V44.639L3.43027 39.5602V42.934C3.40004 43.3814 3.79304 44.5302 5.60689 45.546C7.42075 46.5617 20.9098 53.9985 27.4276 57.59L27.4276 57.5899C33.9454 53.9985 47.4344 46.5617 49.2482 45.5459C51.0621 44.5302 51.4551 43.3814 51.4249 42.934V39.5602L42.5733 44.639V41.3741L51.4249 35.8237V17.8483L30.1846 30.1281V26.1921L49.2482 15.0006L33.6491 5.98572V13.0053L38.9093 16.1252L35.209 17.8483L30.1846 15.0006ZM31.9078 31.8876L43.0811 25.7023C44.2299 28.1269 45.2795 33.4439 40.2878 35.3158C35.2961 37.1877 32.6212 33.8103 31.9078 31.8876ZM27.4276 36.9664L33.4858 39.4332L27.4276 51.9125V51.9126L27.4275 51.9125L21.3693 39.4332L27.4275 36.9664V36.9664L27.4276 36.9664ZM22.9474 31.8876L11.774 25.7024C10.6252 28.1269 9.57561 33.4439 14.5673 35.3158C19.5591 37.1877 22.2339 33.8103 22.9474 31.8876Z" fill="url(#paint0_linear_202_85)"/>
<defs>
<linearGradient id="paint0_linear_202_85" x1="41.1393" y1="0" x2="41.1393" y2="61" gradientUnits="userSpaceOnUse">
<stop stop-color="#FF7044"/>
<stop offset="1" stop-color="#FFC645"/>
</linearGradient>
</defs>
</svg>
