<svg width="42" height="25" viewBox="0 0 42 25" fill="none" xmlns="http://www.w3.org/2000/svg">
<path d="M22.1636 23.0021C10.9553 23.5453 4.08183 10.3258 2.04613 3.64815C1.75874 2.28998 2.88436 1.95044 3.48309 1.95044H7.0755C8.51246 1.95044 9.35068 2.85589 9.59018 3.30861C10.3087 5.68541 13.5418 11.4576 15.338 13.1553C16.775 14.5135 17.3737 13.4949 17.4935 12.8158V7.04358C17.4935 5.00632 16.4157 4.32724 15.6973 3.30861C15.1225 2.49371 15.9368 2.06362 16.4157 1.95044H22.5228C23.9598 1.95044 24.319 2.85589 24.319 3.30861V11.4576C24.319 12.5442 25.5165 12.1367 26.1152 11.7972C28.2707 9.75991 30.7854 5.68541 31.5038 3.98769C32.0786 2.62952 33.1803 2.06362 33.6593 1.95044H37.2517C39.5508 1.95044 39.1676 3.76133 38.6887 4.66678C37.4912 6.59085 34.8807 10.7106 34.0185 11.7972C33.1564 12.8837 33.4198 13.8344 33.6593 14.174C34.737 15.419 37.3235 18.3843 39.0479 20.2857C40.7723 22.1872 39.7664 22.8889 39.0479 23.0021H35.0963C33.3719 23.0021 32.7013 22.5493 32.5816 22.323C31.1446 20.9648 27.9114 18.0447 26.4745 17.2298C25.0375 16.4149 24.4388 17.343 24.319 17.9089V21.3044C24.319 22.6625 22.8821 23.0021 22.1636 23.0021Z" stroke="#55545C" stroke-width="2.6"/>
</svg>
