<svg width="42" height="26" viewBox="0 0 42 26" fill="none" xmlns="http://www.w3.org/2000/svg">
<path d="M22.1636 23.983C10.9553 24.5503 4.08183 10.7459 2.04613 3.77283C1.75874 2.35457 2.88436 2 3.48309 2H7.0755C8.51246 2 9.35068 2.94551 9.59018 3.41826C10.3087 5.90022 13.5418 11.9278 15.338 13.7006C16.775 15.1189 17.3737 14.0552 17.4935 13.3461V7.31848C17.4935 5.19109 16.4157 4.48196 15.6973 3.41826C15.1225 2.5673 15.9368 2.11819 16.4157 2H22.5228C23.9598 2 24.319 2.94551 24.319 3.41826V11.9278C24.319 13.0624 25.5165 12.637 26.1152 12.2824C28.2707 10.155 30.7854 5.90022 31.5038 4.12739C32.0786 2.70913 33.1803 2.11819 33.6593 2H37.2517C39.5508 2 39.1676 3.89101 38.6887 4.83652C37.4912 6.84572 34.8807 11.1478 34.0185 12.2824C33.1564 13.417 33.4198 14.4098 33.6593 14.7643C34.737 16.0644 37.3235 19.161 39.0479 21.1465C40.7723 23.1321 39.7664 23.8648 39.0479 23.983H35.0963C33.3719 23.983 32.7013 23.5103 32.5816 23.2739C31.1446 21.8556 27.9114 18.8064 26.4745 17.9554C25.0375 17.1045 24.4388 18.0736 24.319 18.6646V22.2102C24.319 23.6285 22.8821 23.983 22.1636 23.983Z" stroke="url(#paint0_linear_202_84)" stroke-width="2.6"/>
<defs>
<linearGradient id="paint0_linear_202_84" x1="30.4986" y1="2" x2="30.4986" y2="24" gradientUnits="userSpaceOnUse">
<stop stop-color="#FF7044"/>
<stop offset="1" stop-color="#FFC645"/>
</linearGradient>
</defs>
</svg>
